# xmcd
#
# Track frame offsets:
#	150
#	20560
#	42637
#	59072
#	78845
#	99980
#	116165
#	139005
#	169942
#	189340
#
# Disc length: 2751 seconds
#
# Revision: 1
# Processed by: cddbd v1.5.2PL0 Copyright (c) Steve Scherf et al.
# Submitted via: EZCDAudioConverter 8.0.2.1
#
DISCID=880abd0a
DTITLE=Various Artist - Gọi Đời
DYEAR=1992
DGENRE=Miscellaneous
TTITLE0=Lệ Thu - Tình đầu là kỷ niệm sầu
TTITLE1=Khánh Hà - Giọt nước mắt ngà
TTITLE2=Sĩ Phú - Ru em từng ngón xuân nồng
TTITLE3=Khánh Ly - Dấu tình sầu
TTITLE4=Elvis Phương - Ngàn năm vẫn đợi
TTITLE5=Thư Lê - Ai đi ngoài sương gió
TTITLE6=Sĩ Phú - Bây giờ tháng mấy
TTITLE7=Khánh Ly - Đừng lừa dối nhau
TTITLE8=Elvis Phương - Bài không tên cuối cùng
TTITLE9=Lệ Thu - Gọi Đời
EXTD=
EXTT0=
EXTT1=
EXTT2=
EXTT3=
EXTT4=
EXTT5=
EXTT6=
EXTT7=
EXTT8=
EXTT9=
PLAYORDER=
